PathFileType	4	(X/Y/Z)	Patient5_TMGait_0pt45_1_left_12.trc.trc
DataRate	CameraRate	NumFrames	NumMarkers	Units	OrigDataRate	OrigDataStartFrame	OrigNumFrames
62.500000000000	62.500000000000	6	32	mm	62.500000000000	1	       141
Frame#	Time	R.ASIS			L.ASIS			Chest			R.Shoulder			Neck			L.Shoulder			L.Elbow			L.Wrist			R.Elbow			R.Wrist			L.Thigh.Superior			L.Thigh.Lateral			L.Thigh.Inferior			L.Patella			L.Shank.Superior			L.Shank.Lateral			L.Shank.Inferior			L.Heel			L.Midfoot.Lateral			L.Midfoot.Superior			L.Toe			R.Thigh.Superior			R.Thigh.Lateral			R.Thigh.Inferior			R.Patella			R.Shank.Superior			R.Shank.Lateral			R.Shank.Inferior			R.Heel			R.Midfoot.Lateral			R.Midfoot.Superior			R.Toe			
		X1	Y1	Z1	X2	Y2	Z2	X3	Y3	Z3	X4	Y4	Z4	X5	Y5	Z5	X6	Y6	Z6	X7	Y7	Z7	X8	Y8	Z8	X9	Y9	Z9	X10	Y10	Z10	X11	Y11	Z11	X12	Y12	Z12	X13	Y13	Z13	X14	Y14	Z14	X15	Y15	Z15	X16	Y16	Z16	X17	Y17	Z17	X18	Y18	Z18	X19	Y19	Z19	X20	Y20	Z20	X21	Y21	Z21	X22	Y22	Z22	X23	Y23	Z23	X24	Y24	Z24	X25	Y25	Z25	X26	Y26	Z26	X27	Y27	Z27	X28	Y28	Z28	X29	Y29	Z29	X30	Y30	Z30	X31	Y31	Z31	X32	Y32	Z32	

1	18.610000000000	982.125799696925	967.957894575459	569.650282082714	945.778747600197	949.966574681099	333.127624094064	1029.109133198513	1426.683082408001	467.397645850152	941.963504802591	1483.251323338238	644.010533971922	902.736041612912	1550.093356494437	464.243654697584	949.570241199839	1499.267547129637	278.048387822535	842.030554736528	1197.679392035027	139.983614274796	924.859337340996	918.430611086832	132.628368700928	871.934308395435	1162.572550223283	785.468685516770	1079.041917589040	984.995207818214	685.298865269105	962.741882668195	728.411107935282	297.616090490062	882.641284742408	663.822055179650	257.657703344595	962.370586604931	596.772977369914	299.400031350015	942.097151628877	453.917148369278	287.782164531483	841.186943240864	382.733701846129	319.420079092571	737.344229715939	374.231652512743	252.253508390557	740.656058312581	307.155337318628	337.406349274323	490.954302724519	212.778063959038	349.267525750516	537.357396664197	125.457863110829	299.955513610048	652.309464604986	111.718497586594	335.731465130600	702.522385694788	40.360840316634	357.689369044623	1018.959601225153	743.348619883882	602.046534859173	941.350500071115	657.433510362029	649.433450035696	1029.391644570588	616.683588213640	575.599602702193	1038.173561879604	515.985426963938	600.298099133572	994.736201766788	413.709158689266	558.078593369529	922.244841173945	343.371345748110	637.963459474257	971.269444253957	275.482752037465	550.654129533074	841.042459436499	53.184404666077	511.091397706268	919.021502634777	25.084558451740	585.039574799973	1025.350328640287	87.632285087200	560.926607083047	1128.891265330362	43.645244004031	562.432294629425	
2	18.626000000000	984.719858758604	967.812985870832	572.104137796790	946.505706347732	949.762451211093	335.099711636557	1033.018821039044	1425.543314507702	469.970770188306	947.965551825129	1481.858887103781	647.514172945994	906.956775617263	1549.598619557431	468.311986434782	952.023377445715	1499.125009361267	281.569395481879	840.818269235107	1198.314298611279	144.648300227070	921.729070862902	918.565929192810	136.251849867473	880.450545824401	1161.174894210012	790.063798086088	1088.228398541724	984.618700855676	689.726939717890	972.274804315777	731.877145362151	297.678102476061	895.956176995932	664.351086653586	257.782246895617	979.164608860177	601.163904109252	299.251857765334	964.194105847401	457.013725446483	288.490499926595	861.389625876389	385.779318256762	319.588983309478	758.546351026349	379.449903281948	250.877473010599	758.400815916399	313.947592592387	336.995183005050	507.924685362328	233.332523156527	346.577155339159	548.413840471944	143.318254170990	297.518517271687	661.658675167156	121.699991829527	334.969990975370	704.188221246571	40.147681812924	356.341568581012	1017.187545839213	742.416942244055	600.896585055798	939.039398051816	657.821920237946	650.474007441649	1024.289106465279	615.223968661210	574.759540042467	1031.486897819798	514.875411070225	599.411583370259	986.982745621436	413.550722592525	558.090846119206	915.659795695049	343.349869569338	638.543601430271	963.678725322314	275.449951836518	550.738608952820	833.379696169565	53.128701290921	511.255873324477	911.356912894418	25.048063030497	585.224655858512	1017.647792265378	87.527055819956	560.940458609140	1121.231326211681	43.618225977401	562.483990659991	
3	18.642000000000	987.300338759666	967.789725873746	574.559571856814	947.274484778656	949.749107754719	337.033776963795	1036.787275750672	1424.577740837030	472.359390221856	953.762750604010	1480.592778044627	650.808811061271	911.077497486472	1549.228208020002	472.165217169252	954.356725160592	1499.144445603025	284.898904783287	839.642246718222	1198.973876418284	149.267011980810	918.764918913717	918.757089204498	139.799648132758	888.927027631656	1159.908419032024	794.459319998944	1097.269110591648	984.138500377205	694.117979579350	981.601343094872	735.571295784852	298.095106849152	909.049254759239	665.204463435056	258.118420872867	995.566053198035	605.858242146388	299.447769187194	985.830884345106	460.412318846920	289.365792554862	881.234207139274	389.068652897407	319.904793612248	779.345510412307	384.757688770542	249.764557815661	775.991893755412	320.701744755241	336.750729622340	524.625004636212	252.400826283508	344.159163349237	560.078710332283	160.097513601997	295.219519143609	671.792981078443	131.497452600377	334.305197140989	707.520070389210	40.630775049565	355.020832442518	1015.377373245462	741.443707861824	599.820690381217	936.431844964663	658.240726834647	651.412177445960	1018.897778624946	613.783372123421	573.921125750702	1024.433256911169	513.858011961286	598.509958753187	978.974787705928	413.521822280582	558.045348982785	908.849320289360	343.439043795807	639.066741549978	955.998717390037	275.528967605750	550.799202884133	825.808805396350	53.092865139234	511.425822972590	903.783364279092	25.016374196568	585.403883544689	1010.041321074375	87.435680577511	560.958739875597	1113.658653509612	43.596827570713	562.534188198870	
4	18.658000000000	989.847267850773	967.925978053686	576.950685989830	948.129145584256	950.079996221285	338.894544797016	1040.345611782805	1423.917284118719	474.394477416596	959.253288076934	1479.562467093685	653.712407021259	915.047914635344	1549.073075269422	475.622181698479	956.498420895482	1499.446865327683	287.874581308811	838.562511428619	1199.690150540705	153.756374442122	916.172694698379	919.071889523214	143.231707713991	897.311293034227	1158.911159150735	798.503058611813	1106.046265762403	983.546093176717	698.417154512536	990.554253736403	739.713433667343	299.130122014107	921.742923542866	666.675845686655	258.841096435474	1011.249315591914	611.138751579925	300.269452761316	1006.666026554132	464.429325213330	290.572065487948	900.535564166862	392.785067789668	320.512626972206	799.509309804533	390.123163423811	249.161523017765	793.459403004987	327.257970162080	336.836546358103	541.078349211650	268.375077693016	342.301703530296	573.133383949689	174.602555550124	293.202025606898	683.679474271317	140.762100204349	333.794126766245	714.347667423179	42.264467497648	353.670838941141	1013.423537236231	740.384975074031	598.867988033771	933.285148642019	658.696429185478	652.179561681016	1012.986783222213	612.372782683360	573.092897300160	1016.752962170018	512.989641950778	597.597883763470	970.529960895848	413.711940930311	557.913070561639	901.626448169249	343.713496563332	639.495133925324	948.139557827509	275.793963588924	550.826845934297	818.353225927662	53.090756467155	511.606624948744	896.329489410825	24.992982575974	585.572881156147	1002.562705565016	87.368614810618	560.988055753420	1106.200441686863	43.588480186295	562.580304185809	
5	18.674000000000	992.360150027371	968.199127253847	579.139588033805	949.112171154129	950.849004031033	340.658008081720	1043.687985395519	1423.641457976056	475.955106697785	964.428683217345	1478.843851318475	656.105672501548	918.861040964144	1549.185301593815	478.570110953419	958.417598095456	1500.107674388518	290.395292530930	837.650297094567	1200.503743017597	158.019489584384	914.137543997409	919.577050208856	146.553935531292	905.547791907495	1158.297466020353	802.112587973042	1114.489344340322	982.912542541937	702.572515731324	999.039212785107	744.455930046471	300.905928913707	933.932728506162	668.963576292469	260.054183758324	1026.016961079815	617.193205500916	301.875638364206	1026.518761913339	469.303988190809	292.212552768312	919.266266018204	397.011927073339	321.504615313922	818.958381497405	395.442665429292	249.249485573158	810.938082415056	333.402227556098	337.363887307397	557.468668137836	279.979971145207	341.235068421954	588.250343512649	185.863603746645	291.581331455615	698.150684826742	149.116134976789	333.446703315538	726.162982873297	45.206076546189	352.189146126842	1011.182558162842	739.202330173985	598.044190725263	929.437194084815	659.179608349125	652.747689314640	1006.394395775144	610.993969174231	572.278236723728	1008.294804177684	512.290778742202	596.685710439299	961.523150021747	414.168013902664	557.693460848939	893.857629182573	344.212842634458	639.818442133548	940.016440950588	276.286087177995	550.826695877579	810.985917007658	53.128418734255	511.806294100127	888.976365793631	24.979527242217	585.729544765116	995.194033157497	87.331181274914	561.034694632004	1098.837871980895	43.600516653169	562.619099534259	
6	18.690000000000	994.822839570539	968.527384548361	580.977788348160	950.247770467733	952.066178295872	342.307331012217	1046.865524205300	1423.756327872643	476.984062703688	969.360052797113	1478.464684797339	657.941292164946	922.545288217321	1549.562225898595	480.968997467997	960.134067137501	1501.128399247091	292.424772282271	836.977426829936	1201.442329834135	161.946870814965	912.806545659849	920.317139776719	149.795857746490	913.558058862069	1158.137904611577	805.274729208955	1122.554650684215	982.375230923278	706.523632164090	1007.004292696233	749.841580264865	303.383206626163	945.555466930172	672.132322706305	261.764427888719	1039.767564107034	624.069530982142	304.273138982202	1045.320660509975	475.151535078620	294.316583284805	937.504719130501	401.708981107728	322.912784153958	837.729564107043	400.518882537724	250.113838801219	828.612153711600	338.866619102147	338.376575614029	574.127597960283	286.406122906785	341.096575625808	605.889224908420	193.233267086722	290.429320317328	715.758715611805	156.161542044572	333.229466568466	743.836705676211	49.243330897074	350.448392015104	1008.524139219914	737.878059591800	597.317699097296	924.864704934048	659.662657008587	653.131668041600	999.104253543638	609.645406225099	571.481195575037	999.098718883777	511.742475999233	595.795368341969	951.965986030128	414.878828542738	557.417176840399	885.530094878639	344.929449236147	640.054318356864	931.604370710611	276.998216902379	550.818049621963	803.657406158084	53.203120712800	512.032010023530	881.683819571274	24.975048968075	585.873550710562	987.893786712792	87.322696372397	561.104003632899	1091.532742215412	43.638855813475	562.647530866418	
